# xmcd
#
# Track frame offsets:
#	150
#	14647
#	26697
#	27025
#	46339
#	60707
#	61160
#	80715
#	98275
#	110677
#	128690
#	134412
#	147402
#
# Disc length: 2222 seconds
#
# Revision: 0
# Processed by: cddbd v1.5.2PL0 Copyright (c) Steve Scherf et al.
# Submitted via: dBpowerAMP V4.0
#
DISCID=ae08ac0d
DTITLE=Munly - Blurry
DYEAR=1996
DGENRE=
TTITLE0=virgin of manhattan
TTITLE1=hang on with eskimos
TTITLE2=untitled
TTITLE3=baptists and barbiturates
TTITLE4=tonto
TTITLE5=untitled
TTITLE6=too fat to walk
TTITLE7=kidneys running dry
TTITLE8=once again
TTITLE9=stupid is forever
TTITLE10=heater
TTITLE11=no dead fuel
TTITLE12=karp
EXTD=
EXTT0=
EXTT1=
EXTT2=
EXTT3=
EXTT4=
EXTT5=
EXTT6=
EXTT7=
EXTT8=
EXTT9=
EXTT10=
EXTT11=
EXTT12=
PLAYORDER=
